<?xml version="1.0" encoding="UTF-8" standalone="no"?>
<!-- Created with Inkscape (http://www.inkscape.org/) -->

<svg
   version="1.1"
   id="svg1"
   width="5669.2935"
   height="5669.2935"
   viewBox="0 0 5669.2935 5669.2935"
   sodipodi:docname="EVOLVE GRAPPLING.ai"
   xmlns:inkscape="http://www.inkscape.org/namespaces/inkscape"
   xmlns:sodipodi="http://sodipodi.sourceforge.net/DTD/sodipodi-0.dtd"
   xmlns="http://www.w3.org/2000/svg"
   xmlns:svg="http://www.w3.org/2000/svg">
  <defs
     id="defs1">
    <clipPath
       clipPathUnits="userSpaceOnUse"
       id="clipPath3">
      <path
         d="M 0,4251.968 H 4251.968 V 0 H 0 Z"
         transform="translate(-624.77381,-3214.7948)"
         id="path3" />
    </clipPath>
    <clipPath
       clipPathUnits="userSpaceOnUse"
       id="clipPath5">
      <path
         d="M 0,4251.968 H 4251.968 V 0 H 0 Z"
         transform="translate(-3023.1651,-1327.2412)"
         id="path5" />
    </clipPath>
    <clipPath
       clipPathUnits="userSpaceOnUse"
       id="clipPath7">
      <path
         d="M 0,4251.968 H 4251.968 V 0 H 0 Z"
         transform="translate(-989.9515,-1783.5956)"
         id="path7" />
    </clipPath>
    <clipPath
       clipPathUnits="userSpaceOnUse"
       id="clipPath9">
      <path
         d="M 0,4251.968 H 4251.968 V 0 H 0 Z"
         transform="translate(-546.27721,-1702.9598)"
         id="path9" />
    </clipPath>
    <clipPath
       clipPathUnits="userSpaceOnUse"
       id="clipPath11">
      <path
         d="M 0,4251.968 H 4251.968 V 0 H 0 Z"
         transform="translate(-3827.5997,-1702.5907)"
         id="path11" />
    </clipPath>
    <clipPath
       clipPathUnits="userSpaceOnUse"
       id="clipPath13">
      <path
         d="M 0,4251.968 H 4251.968 V 0 H 0 Z"
         transform="translate(-1401.0204,-1536.1337)"
         id="path13" />
    </clipPath>
    <clipPath
       clipPathUnits="userSpaceOnUse"
       id="clipPath15">
      <path
         d="M 0,4251.968 H 4251.968 V 0 H 0 Z"
         transform="translate(-1784.7826,-1628.3905)"
         id="path15" />
    </clipPath>
    <clipPath
       clipPathUnits="userSpaceOnUse"
       id="clipPath17">
      <path
         d="M 0,4251.968 H 4251.968 V 0 H 0 Z"
         transform="translate(-2213.9668,-1626.7333)"
         id="path17" />
    </clipPath>
    <clipPath
       clipPathUnits="userSpaceOnUse"
       id="clipPath19">
      <path
         d="M 0,4251.968 H 4251.968 V 0 H 0 Z"
         transform="translate(-2700.5791,-1893.9199)"
         id="path19" />
    </clipPath>
    <clipPath
       clipPathUnits="userSpaceOnUse"
       id="clipPath21">
      <path
         d="M 0,4251.968 H 4251.968 V 0 H 0 Z"
         transform="translate(-3071.2589,-1893.6757)"
         id="path21" />
    </clipPath>
    <clipPath
       clipPathUnits="userSpaceOnUse"
       id="clipPath23">
      <path
         d="M 0,4251.968 H 4251.968 V 0 H 0 Z"
         transform="translate(-1927.5604,-2902.5233)"
         id="path23" />
    </clipPath>
    <clipPath
       clipPathUnits="userSpaceOnUse"
       id="clipPath25">
      <path
         d="M 0,4251.968 H 4251.968 V 0 H 0 Z"
         transform="translate(-1645.2328,-3080.5819)"
         id="path25" />
    </clipPath>
    <clipPath
       clipPathUnits="userSpaceOnUse"
       id="clipPath27">
      <path
         d="M 0,4251.968 H 4251.968 V 0 H 0 Z"
         transform="translate(-3507.3526,-3078.9291)"
         id="path27" />
    </clipPath>
    <clipPath
       clipPathUnits="userSpaceOnUse"
       id="clipPath29">
      <path
         d="M 0,4251.968 H 4251.968 V 0 H 0 Z"
         transform="translate(-162.51501,-2059.4461)"
         id="path29" />
    </clipPath>
    <clipPath
       clipPathUnits="userSpaceOnUse"
       id="clipPath31">
      <path
         d="M 0,4251.968 H 4251.968 V 0 H 0 Z"
         transform="translate(-4078.5939,-3078.0238)"
         id="path31" />
    </clipPath>
    <clipPath
       clipPathUnits="userSpaceOnUse"
       id="clipPath33">
      <path
         d="M 0,4251.968 H 4251.968 V 0 H 0 Z"
         transform="translate(-2643.8868,-3078.4959)"
         id="path33" />
    </clipPath>
  </defs>
  <sodipodi:namedview
     id="namedview1"
     pagecolor="#ffffff"
     bordercolor="#000000"
     borderopacity="0.25"
     inkscape:showpageshadow="2"
     inkscape:pageopacity="0.0"
     inkscape:pagecheckerboard="0"
     inkscape:deskcolor="#d1d1d1">
    <inkscape:page
       x="0"
       y="0"
       inkscape:label="1"
       id="page1"
       width="5669.2935"
       height="5669.2935"
       margin="252.98801 231.17334 230.60001 216.68666"
       bleed="0" />
  </sodipodi:namedview>
  <g
     id="layer-MC0"
     inkscape:groupmode="layer"
     inkscape:label="Capa 1">
    <path
       id="path1"
       d="M 0,0 208.261,0.417 1668.263,-858.215 3113.392,1.158 3318.312,0.657 1667.402,-1002.949 Z"
       style="fill:#3f7b8a;fill-opacity:1;fill-rule:nonzero;stroke:none"
       transform="matrix(1.3333333,0,0,-1.3333333,601.1912,4079.0396)" />
    <path
       id="path2"
       d="M 0,0 C 0,0 1042.252,595.781 1491.043,864.223 L 2982.858,0.889 2775.997,-0.148 1489.224,732.092 224.588,0 Z"
       style="fill:#3f7b8a;fill-opacity:1;fill-rule:nonzero;stroke:none"
       transform="matrix(1.3333333,0,0,-1.3333333,833.03173,1382.9004)"
       clip-path="url(#clipPath3)" />
    <path
       id="path4"
       d="m 0,0 131.537,566.784 121.535,-0.327 c 17.774,-103.891 57.335,-308.744 57.335,-308.744 l 71.219,308.865 124.19,-0.411 L 365.856,0.084 246.426,-0.564 189.824,292.661 111.327,-0.243 Z"
       style="fill:#3f7b8a;fill-opacity:1;fill-rule:nonzero;stroke:none"
       transform="matrix(1.3333333,0,0,-1.3333333,4030.8867,3899.6385)"
       clip-path="url(#clipPath5)" />
    <path
       id="path6"
       d="m 0,0 c -15.504,16.51 -90.235,9.615 -90.235,9.615 l -30.684,-156.786 c 0,0 83.074,-2.127 100.429,19.461 C -8.758,-113.117 13.359,-14.227 0,0 M 57.833,-456.786 H -72.995 l -34.941,213.632 -35.128,-1.833 -54.218,-211.799 h -124.286 l 128.581,567.134 148.158,-0.393 C 4.154,107.343 122.358,122.844 135.284,45.854 143.833,-5.07 101.653,-155.413 73.251,-199.646 55.11,-227.9 20.783,-230.809 20.116,-236.401 Z"
       style="fill:#3f7b8a;fill-opacity:1;fill-rule:nonzero;stroke:none"
       transform="matrix(1.3333333,0,0,-1.3333333,1319.9353,3291.1659)"
       clip-path="url(#clipPath7)" />
    <path
       id="path8"
       d="m 0,0 c 9.782,46.906 21.931,82.259 -41.917,82.38 -47.837,0.091 -58.662,-29.822 -70.222,-68.363 -27.151,-90.523 -66.473,-253.468 -66.473,-253.468 1.755,-51.12 95.847,-41.428 117.784,3.939 5.585,11.549 21.065,56.876 21.682,69.247 l -61.135,2.227 21.784,104.638 h 187.52 c -19.652,-70.812 -26.352,-153.112 -57.324,-218.864 -44.906,-95.33 -203.064,-113.642 -292.54,-84.478 -83.964,27.367 -71.575,95.038 -58.704,165.345 15.851,86.584 44.488,202.161 72.611,282.6 38.39,109.807 191.435,116.136 288.231,96.02 C 163.312,160.022 154.553,79.818 124.287,0 Z"
       style="fill:#3f7b8a;fill-opacity:1;fill-rule:nonzero;stroke:none"
       transform="matrix(1.3333333,0,0,-1.3333333,728.3696,3398.6803)"
       clip-path="url(#clipPath9)" />
    <path
       id="path10"
       d="m 0,0 c 9.782,46.907 21.932,82.26 -41.917,82.381 -47.837,0.09 -58.661,-29.823 -70.222,-68.363 -27.151,-90.523 -66.472,-253.468 -66.472,-253.468 1.754,-51.12 95.846,-41.429 117.784,3.939 5.584,11.549 21.064,56.876 21.681,69.247 l -61.135,2.226 21.784,104.639 h 187.52 c -19.652,-70.812 -26.351,-153.112 -57.324,-218.864 -44.905,-95.33 -203.063,-113.642 -292.54,-84.478 -83.964,27.366 -71.574,95.038 -58.704,165.345 15.851,86.583 44.488,202.161 72.611,282.6 38.39,109.806 191.435,116.136 288.232,96.02 C 163.312,160.022 154.554,79.819 124.287,0 Z"
       style="fill:#3f7b8a;fill-opacity:1;fill-rule:nonzero;stroke:none"
       transform="matrix(1.3333333,0,0,-1.3333333,5103.4661,3399.1724)"
       clip-path="url(#clipPath11)" />
    <path
       id="path12"
       d="M 0,0 V 191.882 L -82.858,0 Z M 122.106,357.109 130.644,-208.389 0,-208.31 v 108.009 h -126.467 c -14.206,-36.582 -50.151,-109.023 -50.151,-109.023 h -124.286 l 263.836,566.433 z"
       style="fill:#3f7b8a;fill-opacity:1;fill-rule:nonzero;stroke:none"
       transform="matrix(1.3333333,0,0,-1.3333333,1868.0272,3621.1151)"
       clip-path="url(#clipPath13)" />
    <path
       id="path14"
       d="m 0,0 h 76.316 c 50.62,-0.479 60.336,138.188 58.133,149.388 -6.387,32.468 -92.527,25.311 -92.527,25.311 z m -65.414,-300.904 h -126.467 l 128.575,566.75 c 0,0 235.826,-0.293 269.242,-8.406 42.597,-10.339 61.129,-44.344 60.428,-88.155 -0.536,-33.58 -37.272,-171.816 -53.526,-201.144 -26.644,-48.077 -84.077,-69.041 -136.352,-72.973 -17.382,-1.308 -100.659,-4.003 -100.659,-4.003 z"
       style="fill:#3f7b8a;fill-opacity:1;fill-rule:nonzero;stroke:none"
       transform="matrix(1.3333333,0,0,-1.3333333,2379.7101,3498.106)"
       clip-path="url(#clipPath15)" />
    <path
       id="path16"
       d="m 0,0 h 76.316 c 50.62,-0.479 60.336,138.187 58.133,149.387 -6.387,32.468 -92.527,25.312 -92.527,25.312 z m -65.414,-299.984 h -126.467 l 128.574,566.751 c 0,0 235.827,-1.215 269.243,-9.327 42.596,-10.34 61.128,-44.345 60.428,-88.156 -0.537,-33.58 -37.272,-171.815 -53.526,-201.143 -26.645,-48.077 -84.077,-69.041 -136.352,-72.974 -17.382,-1.308 -100.66,-4.002 -100.66,-4.002 z"
       style="fill:#3f7b8a;fill-opacity:1;fill-rule:nonzero;stroke:none"
       transform="matrix(1.3333333,0,0,-1.3333333,2951.9557,3500.3156)"
       clip-path="url(#clipPath17)" />
    <path
       id="path18"
       d="M 0,0 -104.662,-465.022 H 56.692 l -28.307,-101.812 -285.68,0.589 L -130.828,0 Z"
       style="fill:#3f7b8a;fill-opacity:1;fill-rule:nonzero;stroke:none"
       transform="matrix(1.3333333,0,0,-1.3333333,3600.7721,3144.0669)"
       clip-path="url(#clipPath19)" />
    <path
       id="path20"
       d="M 0,0 -135.189,-566.922 H -261.656 L -130.828,0 Z"
       style="fill:#3f7b8a;fill-opacity:1;fill-rule:nonzero;stroke:none"
       transform="matrix(1.3333333,0,0,-1.3333333,4095.0117,3144.3924)"
       clip-path="url(#clipPath21)" />
    <path
       id="path22"
       d="m 0,0 c -29.356,-4.943 -45.086,-28.237 -54.369,-54.655 -34.289,-172.541 -83.9,-323.466 -116.813,-496.182 -14.403,-75.587 -22.255,-111.679 74.4,-109.292 88.484,2.184 94.222,45.154 113.227,117.908 38.682,148.086 75.868,296.857 104.66,447.282 5.104,26.666 20.067,65.551 -6.653,85.017 C 95.334,4.005 23.786,4.005 0,0 M 17.678,178.564 C 96.729,183.15 265.251,186.05 326.141,131.993 373.96,89.539 358.916,24.605 348.661,-30.313 312.528,-223.804 260.756,-431.646 209.19,-621.581 146.418,-852.785 -4.166,-855.053 -219.303,-843.285 c -95.093,5.201 -211.607,29.41 -198.136,150.599 l 165.545,722.172 c 44.189,121.456 153.097,142.321 269.572,149.078"
       style="fill:#d8dcc3;fill-opacity:1;fill-rule:nonzero;stroke:none"
       transform="matrix(1.3333333,0,0,-1.3333333,2570.0805,1799.2624)"
       clip-path="url(#clipPath23)" />
    <path
       id="path24"
       d="m 0,0 -438.274,-1020.459 h -250.754 c 0,0 9.233,1018.184 10.903,1018.184 h 215.866 l -45.79,-787.098 C -399.47,-529.841 -191.88,0 -190.622,0 Z"
       style="fill:#d8dcc3;fill-opacity:1;fill-rule:nonzero;stroke:none"
       transform="matrix(1.3333333,0,0,-1.3333333,2193.6437,1561.8509)"
       clip-path="url(#clipPath25)" />
    <path
       id="path26"
       d="M 0,0 -436.094,-1018.861 H -697.75 L -665.043,0.244 h 211.506 L -508.049,-783.415 -196.242,0 Z"
       style="fill:#d8dcc3;fill-opacity:1;fill-rule:nonzero;stroke:none"
       transform="matrix(1.3333333,0,0,-1.3333333,4676.47,1564.0547)"
       clip-path="url(#clipPath27)" />
    <path
       id="path28"
       d="M 0,0 215.875,1020.556 715.209,1020.454 684.628,846.058 401.639,845.576 348.875,610.531 H 601.809 L 562.799,429.155 311.734,427.444 257.295,183.159 H 558.2 L 516.771,0 Z"
       style="fill:#d8dcc3;fill-opacity:1;fill-rule:nonzero;stroke:none"
       transform="matrix(1.3333333,0,0,-1.3333333,216.68667,2923.3653)"
       clip-path="url(#clipPath29)" />
    <path
       id="path30"
       d="m 0,0 -34.595,-170.005 -278.773,-2.495 -52.909,-234.925 h 248.573 l -38.95,-181.277 -248.286,-2.453 -57.341,-241.401 305.302,-2.257 -39.222,-183.143 h -514.59 L -491.638,0.607 Z"
       style="fill:#d8dcc3;fill-opacity:1;fill-rule:nonzero;stroke:none"
       transform="matrix(1.3333333,0,0,-1.3333333,5438.1251,1565.2617)"
       clip-path="url(#clipPath31)" />
    <path
       id="path32"
       d="M 0,0 -183.159,-834.104 H 49.813 l -32.895,-182.639 -457.356,-0.49 L -215.866,0 Z"
       style="fill:#d8dcc3;fill-opacity:1;fill-rule:nonzero;stroke:none"
       transform="matrix(1.3333333,0,0,-1.3333333,3525.1823,1564.6323)"
       clip-path="url(#clipPath33)" />
  </g>
</svg>
